<svg xmlns="http://www.w3.org/2000/svg" width="128" height="128" viewBox="0 0 128 128">
  <defs>
    <linearGradient id="g" x1="0" x2="1" y1="0" y2="1">
      <stop offset="0" stop-color="#4f46e5"/>
      <stop offset="1" stop-color="#06b6d4"/>
    </linearGradient>
  </defs>
  <rect width="128" height="128" rx="24" fill="url(#g)"/>
  <g fill="#fff" transform="translate(16,16)">
    <!-- Lightbulb for ideas -->
    <path d="M48 12a24 24 0 0 0-12.4 44.7c2.6 1.6 4.4 4.4 4.4 7.5V68h16v-3.8c0-3.1 1.8-5.9 4.4-7.5A24 24 0 0 0 48 12z" opacity="0.9"/>
    <rect x="38" y="68" width="20" height="6" rx="3" opacity="0.9"/>
    <!-- Open book for lessons -->
    <path d="M8 84c12-8 24-8 36 0v16c-12-8-24-8-36 0V84z" opacity="0.9"/>
    <path d="M88 84c-12-8-24-8-36 0v16c12-8 24-8 36 0V84z" opacity="0.9"/>
  </g>
</svg>
